<svg width="1700" height="1710" viewBox="0 0 1700 1710" fill="none" xmlns="http://www.w3.org/2000/svg">
<mask id="path-1-outside-1_31_44" maskUnits="userSpaceOnUse" x="0" y="0" width="1700" height="1710" fill="black">
<rect fill="white" width="1700" height="1710"/>
<path fill-rule="evenodd" clip-rule="evenodd" d="M850.438 1709C1288.95 1709 1650.26 1378.5 1698.88 953H1283.67C1239.05 1151.11 1062.02 1299.08 850.438 1299.08C639.209 1299.08 462.43 1151.6 417.438 954H2.11328C51.1777 1379.01 412.271 1709 850.438 1709ZM850.438 1C1288.6 1 1649.7 330.986 1698.76 756H1283.44C1238.45 558.396 1061.67 410.92 850.438 410.92C638.854 410.92 461.828 558.894 417.207 757H2C50.6113 331.504 411.928 1 850.438 1ZM848.438 1135C1002.52 1135 1127.44 1010.09 1127.44 856C1127.44 701.913 1002.52 577 848.438 577C694.35 577 569.438 701.913 569.438 856C569.438 1010.09 694.35 1135 848.438 1135Z"/>
</mask>
<path fill-rule="evenodd" clip-rule="evenodd" d="M850.438 1709C1288.95 1709 1650.26 1378.5 1698.88 953H1283.67C1239.05 1151.11 1062.02 1299.08 850.438 1299.08C639.209 1299.08 462.43 1151.6 417.438 954H2.11328C51.1777 1379.01 412.271 1709 850.438 1709ZM850.438 1C1288.6 1 1649.7 330.986 1698.76 756H1283.44C1238.45 558.396 1061.67 410.92 850.438 410.92C638.854 410.92 461.828 558.894 417.207 757H2C50.6113 331.504 411.928 1 850.438 1ZM848.438 1135C1002.52 1135 1127.44 1010.09 1127.44 856C1127.44 701.913 1002.52 577 848.438 577C694.35 577 569.438 701.913 569.438 856C569.438 1010.09 694.35 1135 848.438 1135Z" fill="black"/>
<path d="M1698.88 953L1699.87 953.114L1700 952H1698.88V953ZM1283.67 953V952H1282.87L1282.69 952.78L1283.67 953ZM417.438 954L418.413 953.778L418.235 953H417.438V954ZM2.11328 954V953H0.991198L1.11988 954.115L2.11328 954ZM1698.76 756V757H1699.88L1699.76 755.885L1698.76 756ZM1283.44 756L1282.46 756.222L1282.64 757H1283.44V756ZM417.207 757V758H418.007L418.183 757.22L417.207 757ZM2 757L1.00646 756.886L0.879249 758H2V757ZM1697.88 952.886C1649.33 1377.88 1288.43 1708 850.438 1708V1710C1289.46 1710 1651.2 1379.11 1699.87 953.114L1697.88 952.886ZM1283.67 954H1698.88V952H1283.67V954ZM850.438 1300.08C1062.5 1300.08 1239.92 1151.77 1284.64 953.22L1282.69 952.78C1238.17 1150.44 1061.54 1298.08 850.438 1298.08V1300.08ZM416.462 954.222C461.556 1152.27 638.732 1300.08 850.438 1300.08V1298.08C639.686 1298.08 463.303 1150.94 418.413 953.778L416.462 954.222ZM2.11328 955H417.438V953H2.11328V955ZM850.438 1708C412.785 1708 52.1136 1378.4 3.10668 953.885L1.11988 954.115C50.2419 1379.63 411.758 1710 850.438 1710V1708ZM1699.76 755.885C1650.63 330.373 1289.12 0 850.438 0V2C1288.09 2 1648.76 331.599 1697.77 756.115L1699.76 755.885ZM1283.44 757H1698.76V755H1283.44V757ZM850.438 411.92C1061.19 411.92 1237.57 559.063 1282.46 756.222L1284.41 755.778C1239.32 557.729 1062.14 409.92 850.438 409.92V411.92ZM418.183 757.22C462.703 559.56 639.331 411.92 850.438 411.92V409.92C638.376 409.92 460.953 558.228 416.231 756.78L418.183 757.22ZM2 758H417.207V756H2V758ZM850.438 0C411.414 0 49.6748 330.891 1.00646 756.886L2.99354 757.114C51.5478 332.117 412.442 2 850.438 2V0ZM1126.44 856C1126.44 1009.54 1001.97 1134 848.438 1134V1136C1003.08 1136 1128.44 1010.64 1128.44 856H1126.44ZM848.438 578C1001.97 578 1126.44 702.465 1126.44 856H1128.44C1128.44 701.36 1003.08 576 848.438 576V578ZM570.438 856C570.438 702.465 694.902 578 848.438 578V576C693.798 576 568.438 701.36 568.438 856H570.438ZM848.438 1134C694.902 1134 570.438 1009.54 570.438 856H568.438C568.438 1010.64 693.798 1136 848.438 1136V1134Z" fill="white" mask="url(#path-1-outside-1_31_44)"/>
</svg>
